<?xml version="1.0" encoding="UTF-8"?>
<svg id="Capa_2" data-name="Capa 2" xmlns="http://www.w3.org/2000/svg" viewBox="0 0 56.69 66.66">
  <defs>
    <style>
      .cls-1 {
        fill: #e9a004;
      }
    </style>
  </defs>
  <g id="Capa_1-2" data-name="Capa 1">
    <g>
      <path class="cls-1" d="m49.61,65.21L.92,6.56C-.81,4.47,0,1.3,2.51.29h0c1.61-.65,3.46-.18,4.57,1.16l48.69,58.65c1.73,2.09.93,5.26-1.59,6.27h0c-1.61.65-3.46.18-4.57-1.16Z"/>
      <g>
        <path class="cls-1" d="m.92,60.1c-1.73,2.09-.93,5.26,1.59,6.27h0c1.61.65,3.46.18,4.57-1.16l20.79-25.04-7.87-3.05L.92,60.1Z"/>
        <path class="cls-1" d="m54.18.29c-1.61-.65-3.46-.18-4.57,1.16l-26.46,31.88,5.2,6.27L55.77,6.56c1.73-2.09.93-5.26-1.59-6.27Z"/>
      </g>
    </g>
  </g>
</svg>