<?xml version="1.0" encoding="UTF-8"?>
<svg id="Capa_2" data-name="Capa 2" xmlns="http://www.w3.org/2000/svg" viewBox="0 0 226.77 141.73">
  <defs>
    <style>
      .cls-1 {
        fill: #222;
      }

      .cls-2 {
        fill: #333;
      }
    </style>
  </defs>
  <g id="Capa_1-2" data-name="Capa 1">
    <g>
      <g>
        <g>
          <path class="cls-1" d="m41,141.2v-20.98h4.54v20.98h-4.54Z"/>
          <path class="cls-1" d="m48.58,130.69c0-5.97,5.05-10.88,11.28-10.88s11.34,4.91,11.34,10.88-5.08,10.91-11.34,10.91-11.28-4.88-11.28-10.91Zm4.51,0c0,3.62,3.04,6.8,6.77,6.8s6.77-3.19,6.77-6.8-3.01-6.75-6.77-6.75-6.77,3.16-6.77,6.75Z"/>
          <g>
            <path class="cls-1" d="m0,120.22v3.93h4c.68-1.31,1.36-2.62,2.05-3.93H0Z"/>
            <polygon class="cls-1" points="6.11 120.22 6.11 141.2 10.68 141.2 10.68 124.15 16.76 124.15 16.76 120.22 6.11 120.22"/>
          </g>
          <path class="cls-1" d="m37.61,141.2c-1.69-2.24-3.62-4.77-5.43-7.03,2.61-1.12,4.28-3.62,4.28-6.66,0-4.31-3.07-7.29-7.58-7.29h-9.33v20.98h4.51v-6.54c.94.03,1.93.04,2.97,0,1.83-.07,3.52-.25,5.04-.49h.13s-.08.04-.12.07c-1.17.76-2.34,1.52-3.51,2.28,1.2,1.6,2.38,3.12,3.62,4.68h5.43Zm-8.73-10.48h-4.82v-6.57h4.82c2.67,0,3.07,2.27,3.07,3.36,0,2.18-1.67,3.21-3.07,3.21Z"/>
        </g>
        <path class="cls-1" d="m115.62,133.38v7.95h-4.54v-7.95l-8.27-13h5.31l5.22,8.47,5.28-8.47h5.31l-8.32,13Z"/>
        <g>
          <path class="cls-1" d="m84.75,120.35v3.93h4c.68-1.31,1.36-2.62,2.05-3.93h-6.05Z"/>
          <polygon class="cls-1" points="90.86 120.35 90.86 141.33 95.42 141.33 95.42 124.28 101.51 124.28 101.51 120.35 90.86 120.35"/>
        </g>
        <g>
          <path class="cls-1" d="m152.01,141.73c-6.23,0-11.31-4.88-11.31-10.88s5.08-10.85,11.31-10.85c4.22,0,7.95,2.33,9.96,5.74l-4.22,1.64c-1.26-1.81-3.42-3.27-5.74-3.27-3.73,0-6.75,3.16-6.75,6.75s3.01,6.77,6.75,6.77c2.33,0,4.48-1.49,5.74-3.33l4.22,1.64c-2.01,3.47-5.74,5.8-9.96,5.8Z"/>
          <polygon class="cls-1" points="172.71 119.69 161.2 141.33 166.2 141.33 172.71 128.76 179.26 141.33 184.22 141.33 172.71 119.69"/>
          <polygon class="cls-1" points="215.26 119.69 203.75 141.33 208.74 141.33 215.26 128.76 221.8 141.33 226.77 141.33 215.26 119.69"/>
          <path class="cls-1" d="m202.99,141.33c-1.69-2.24-3.62-4.77-5.43-7.03,2.61-1.12,4.28-3.62,4.28-6.66,0-4.31-3.07-7.29-7.58-7.29h-9.33v20.98h4.51v-6.54c.94.03,1.93.04,2.97,0,1.83-.07,3.52-.25,5.04-.49h.13s-.08.04-.12.07c-1.17.76-2.34,1.52-3.51,2.28,1.2,1.6,2.38,3.12,3.62,4.68h5.43Zm-8.73-10.48h-4.82v-6.57h4.82c2.67,0,3.07,2.27,3.07,3.36,0,2.18-1.67,3.21-3.07,3.21Z"/>
          <g>
            <polygon class="cls-1" points="129.7 137.35 129.7 120.35 125.14 120.35 125.14 138.51 125.97 138.3 129.7 137.35"/>
            <path class="cls-1" d="m140.7,137.4h-10.9s0,0,0,0c-1.04.93-2.08,1.86-3.13,2.79-.06.05-.12.11-.18.16-.37.33-.73.65-1.1.98h15.31v-3.93Z"/>
          </g>
        </g>
      </g>
      <polygon class="cls-2" points="226.77 113.39 151.18 113.39 136.06 105.83 125.99 100.8 151.18 75.59 181.42 90.71 188.98 94.49 201.56 100.78 201.58 100.78 211.65 105.83 226.77 113.39"/>
      <polygon class="cls-2" points="100.78 100.78 100.78 100.8 90.71 105.83 75.59 113.39 0 113.39 15.12 105.83 25.19 100.78 25.21 100.78 37.78 94.49 37.8 94.49 45.35 90.71 75.57 75.59 75.59 75.59 100.78 100.78"/>
      <polygon class="cls-1" points="125.99 100.8 120.94 90.71 113.39 75.59 105.83 90.71 100.78 100.78 100.78 100.8 75.57 75.59 75.59 75.59 90.71 45.35 94.49 37.8 100.78 25.19 105.83 15.12 113.39 0 120.94 15.12 125.99 25.21 132.28 37.8 136.06 45.35 151.18 75.59 125.99 100.8"/>
    </g>
  </g>
</svg>