<?xml version="1.0" encoding="UTF-8"?>
<svg id="Capa_2" data-name="Capa 2" xmlns="http://www.w3.org/2000/svg" viewBox="0 0 141.73 141.73">
  <defs>
    <style>
      .cls-1 {
        fill: #f8c600;
      }

      .cls-2 {
        fill: #e9a004;
      }

      .cls-3 {
        fill: #333;
      }
    </style>
  </defs>
  <g id="Capa_1-2" data-name="Capa 1">
    <g>
      <rect class="cls-3" width="141.73" height="141.73" rx="28.06" ry="28.06"/>
      <path class="cls-1" d="m100.77,62.72c-2.41-.06-4.87-.6-7.37-1.63-2.5-1.02-4.67-2.2-6.51-3.53-1.84-1.33-4.07-2.8-6.69-4.43-2.62-1.63-5.05-2.83-7.28-3.62-6.69-2.35-12.36-2.52-17.01-.5-4.64,2.02-8.11,5.53-10.4,10.54-2.29,5.01-3.2,10.71-2.71,17.1.18,2.71.68,5.25,1.49,7.6.81,2.35,1.96,4.48,3.44,6.38,1.48,1.9,3.21,3.42,5.2,4.57-5.85,1.93-10.86,2.28-15.02,1.04-4.16-1.24-7.4-3.53-9.73-6.88-2.32-3.35-3.54-7.31-3.66-11.9-.12-4.46.51-8.58,1.9-12.35,1.39-3.77,3.32-7,5.79-9.68,2.47-2.68,5.38-4.98,8.73-6.88,3.35-1.9,6.93-3.3,10.77-4.21,3.83-.9,7.76-1.36,11.81-1.36,4.28,0,8.58.35,12.89,1.04,4.31.69,7.83,1.43,10.54,2.22,2.71.78,5.52,1.4,8.41,1.86,2.9.45,5.4.5,7.51.14,2.35-.42,4.37-1.25,6.06-2.49,1.69-1.24,2.38-2.7,2.08-4.39-.3-1.51-1.19-2.71-2.67-3.62-1.48-.9-3.15-1.39-5.02-1.45s-3.71.15-5.52.63c-1.81.48-3.26,1.46-4.34,2.94-1.09,1.48-1.48,3.27-1.18,5.38-3.02-.18-5.13-1.63-6.33-4.34-1.27-2.83-.91-5.52,1.08-8.05,2.17-2.9,5.85-4.4,11.04-4.52,4.16-.06,7.95,1.24,11.35,3.89,3.41,2.65,5.74,5.76,7.01,9.32.48,1.81.75,3.68.81,5.61.06,1.93-.32,3.83-1.13,5.7-.81,1.87-1.85,3.54-3.12,5.02-1.27,1.48-2.97,2.65-5.11,3.53-2.14.87-4.51,1.31-7.1,1.31Z"/>
      <path class="cls-2" d="m70.19,79.96v-1.91c-.36,22.86.33,30.63,2.08,35.34h-20.26c2.17-5.31,2.98-19,2.44-41.07-.24-8.32-1.09-13.78-2.53-16.37,3.2-.3,6.83-.96,10.9-1.99,4.07-1.02,7.22-2.05,9.45-3.08-1.09,2.84-1.75,8.84-1.99,18,1.71.96,19.43,1.07,21.4,0v11.08h-21.49Z"/>
    </g>
  </g>
</svg>