<?xml version="1.0" encoding="UTF-8"?>
<svg id="Capa_2" data-name="Capa 2" xmlns="http://www.w3.org/2000/svg" viewBox="0 0 141.73 141.73">
  <defs>
    <style>
      .cls-1 {
        fill: #f8c600;
      }

      .cls-2 {
        fill: #e9a004;
      }

      .cls-3 {
        fill: #333;
      }
    </style>
  </defs>
  <g id="Capa_1-2" data-name="Capa 1">
    <g>
      <rect class="cls-3" width="141.73" height="141.73" rx="28.06" ry="28.06"/>
      <polygon class="cls-1" points="109.13 11.34 103.46 22.67 103.46 22.68 92.13 28.35 103.47 34.02 109.13 45.35 114.81 34.02 114.81 34.01 126.14 28.35 114.81 22.68 109.13 11.34"/>
      <g>
        <path class="cls-1" d="m70.87,38.27c-19.57,0-35.43,15.86-35.43,35.43s15.86,35.43,35.43,35.43,35.43-15.86,35.43-35.43-15.86-35.43-35.43-35.43Zm0,56.69c-11.74,0-21.26-9.52-21.26-21.26s9.52-21.26,21.26-21.26,21.26,9.52,21.26,21.26-9.52,21.26-21.26,21.26Z"/>
        <path class="cls-2" d="m92.13,73.7c0,11.74-9.52,21.26-21.26,21.26s-21.26-9.52-21.26-21.26c0-1.1-14.17-1.09-14.17,0,0,19.57,15.86,35.43,35.43,35.43s35.43-15.86,35.43-35.43c0-1.09-14.17-1.1-14.17,0Z"/>
      </g>
    </g>
  </g>
</svg>