<?xml version="1.0" encoding="UTF-8"?>
<svg id="Capa_2" data-name="Capa 2" xmlns="http://www.w3.org/2000/svg" viewBox="0 0 141.73 141.73">
  <defs>
    <style>
      .cls-1 {
        fill: #f8c600;
      }

      .cls-2 {
        fill: #e9a004;
      }

      .cls-3 {
        fill: #333;
      }
    </style>
  </defs>
  <g id="Capa_1-2" data-name="Capa 1">
    <g>
      <rect class="cls-1" x="14.17" y="28.35" width="113.39" height="85.04" rx="19.44" ry="19.44"/>
      <rect class="cls-3" width="141.73" height="141.73" rx="28.06" ry="28.06"/>
      <rect class="cls-1" x="14.17" y="28.35" width="113.39" height="85.04" rx="19.44" ry="19.44"/>
      <path class="cls-2" d="m127.56,93.94v-7.91l-33.83-17.62-45.51,25.79,31.36,19.19h28.54c10.74,0,19.44-8.7,19.44-19.44Z"/>
      <path class="cls-3" d="m46.36,50.11v41.5c0,2.14,2.23,3.54,4.16,2.62l43.2-20.75c2.2-1.05,2.2-4.18,0-5.23l-43.2-20.75c-1.93-.93-4.16.48-4.16,2.62Z"/>
      <polygon class="cls-2" points="104.05 36 99.33 45.45 99.33 45.46 89.88 50.18 99.34 54.9 104.05 64.35 108.78 54.9 108.78 54.9 118.23 50.18 108.78 45.46 104.05 36"/>
    </g>
  </g>
</svg>